<?xml version="1.0" encoding="utf-8"?><svg width="180" height="180" viewBox="0 0 180 180" xmlns="http://www.w3.org/2000/svg" xmlns:xlink="http://www.w3.org/1999/xlink"><svg class="at-sociallinks__svg" width="60" height="60" viewBox="-10 -10 68 68" id="faceboock" xmlns="http://www.w3.org/2000/svg"><path d="M47.76 24c0 13.12-10.637 23.76-23.757 23.76C10.877 47.76.24 37.12.24 24 .24 10.876 10.876.24 24.002.24 37.123.24 47.76 10.876 47.76 24M20.034 38.85H26.2V24.01h4.163l.54-5.242H26.2v-3.083c0-1.156.77-1.427 1.308-1.427h3.318v-5.09l-4.568-.018c-5.072 0-6.225 3.796-6.225 6.224v3.394H17.1v5.242h2.933v14.84z"/></svg><svg viewBox="-25.09 -25.09 150.53 150.53" width="60" height="60" id="iconA" x="60" xmlns="http://www.w3.org/2000/svg"><path d="M70.513 7.729H29.175c-5.321 0-9.65 4.329-9.65 9.65v66.235c0 5.321 4.329 9.65 9.65 9.65h41.338c5.321 0 9.65-4.329 9.65-9.65V17.379c0-5.321-4.329-9.65-9.65-9.65zm6.65 75.886a6.657 6.657 0 01-6.65 6.65H29.175a6.657 6.657 0 01-6.65-6.65V17.379a6.657 6.657 0 016.65-6.65h41.338a6.657 6.657 0 016.65 6.65v66.236z"/><path d="M37.36 17.261h24.736v3H37.36zM49.846 74.598h-.018a4.996 4.996 0 00-4.969 5.008 4.995 4.995 0 004.99 4.969h.018a4.955 4.955 0 003.521-1.475 4.955 4.955 0 001.447-3.533 4.995 4.995 0 00-4.989-4.969zm1.413 6.389a1.978 1.978 0 01-1.404.588h-.007a1.992 1.992 0 01-1.989-1.98 1.991 1.991 0 011.98-1.996h.007c1.093 0 1.984.887 1.989 1.98a1.975 1.975 0 01-.576 1.408z"/></svg><svg width="52" height="52" viewBox="-10 -10 52 52" id="iconB" x="60" y="120" xmlns="http://www.w3.org/2000/svg"><path fill="#121212" d="M27.781 19.59h-15.53V4.06a.478.478 0 00-.478-.478H4.06a.478.478 0 00-.478.478v23.721c0 .264.214.478.478.478h23.721a.478.478 0 00.478-.478v-7.714a.478.478 0 00-.478-.478zM11.296 4.538V19.59H4.538v-3.192h2.318a.478.478 0 100-.956H4.538v-3.095h4.248a.478.478 0 100-.956H4.538V8.296h2.318a.478.478 0 100-.956H4.538V4.535h6.758zm16.007 22.766H4.537v-6.759h22.766v6.759z"/><path fill="#121212" d="M23.923 25.945c1.114 0 2.021-.907 2.021-2.021s-.907-2.021-2.021-2.021c-1.114 0-2.021.907-2.021 2.021s.907 2.021 2.021 2.021zm0-3.087a1.067 1.067 0 11-1.066 1.066c0-.588.478-1.066 1.066-1.066z"/></svg><svg viewBox="-25.06 -25.06 150.38 150.38" width="60" height="60" id="iconC" y="60" xmlns="http://www.w3.org/2000/svg"><path d="M82.5 9.25h-65a1.5 1.5 0 00-1.5 1.5v78a1.5 1.5 0 001.5 1.5h65a1.5 1.5 0 001.5-1.5v-78a1.5 1.5 0 00-1.5-1.5zm-1.5 78H19v-75h62v75z"/><path d="M45.5 33.25h24a1.5 1.5 0 100-3h-24a1.5 1.5 0 100 3zM45.5 51.25h24a1.5 1.5 0 100-3h-24a1.5 1.5 0 100 3zM45.5 69.25h24a1.5 1.5 0 000-3h-24a1.5 1.5 0 100 3zM30.144 37.106a5.456 5.456 0 004.064 1.097c1.457-.189 2.753-.934 3.649-2.097s1.287-2.607 1.097-4.063a5.464 5.464 0 00-2.097-3.649 5.459 5.459 0 00-4.063-1.097c-1.457.189-2.753.934-3.649 2.097S27.857 32 28.046 33.457a5.46 5.46 0 002.098 3.649zm1.376-5.881a2.484 2.484 0 011.986-.975c.548 0 1.079.18 1.52.52.529.407.868.997.954 1.659a2.485 2.485 0 01-.499 1.847 2.484 2.484 0 01-1.659.954 2.483 2.483 0 01-1.847-.499 2.484 2.484 0 01-.954-1.659 2.483 2.483 0 01.499-1.847zM33.5 55.25c3.033 0 5.5-2.468 5.5-5.5 0-3.033-2.467-5.5-5.5-5.5s-5.5 2.467-5.5 5.5c0 3.032 2.467 5.5 5.5 5.5zm0-8c1.378 0 2.5 1.122 2.5 2.5 0 1.379-1.122 2.5-2.5 2.5s-2.5-1.121-2.5-2.5c0-1.378 1.122-2.5 2.5-2.5zM33.5 73.25c3.033 0 5.5-2.468 5.5-5.5s-2.467-5.5-5.5-5.5-5.5 2.468-5.5 5.5 2.467 5.5 5.5 5.5zm0-8c1.378 0 2.5 1.121 2.5 2.5s-1.122 2.5-2.5 2.5-2.5-1.121-2.5-2.5 1.122-2.5 2.5-2.5z"/></svg><svg viewBox="-25.19 -25.19 151.13 151.13" width="60" height="60" id="iconD" x="60" y="60" xmlns="http://www.w3.org/2000/svg"><path d="M86.516 62.917l-12.621-8.294a1.5 1.5 0 10-1.648 2.507l10.433 6.856-43.751 15.538L7.724 58.878l17.839-6.492a1.499 1.499 0 00.896-1.923 1.499 1.499 0 00-1.922-.896l-20.66 7.519a1.496 1.496 0 00-.915 1.85v8.914c0 .175.036.34.091.496.01.475.244.937.67 1.219l34.174 22.61a1.5 1.5 0 00.827.249c.297 0 .584-.098.834-.265l47.073-16.717c.554-.197.915-.688.981-1.235.083-.186.131-.391.131-.608V64.39a1.5 1.5 0 00-1.227-1.473zM5.962 61.31l31.263 20.684v6.139L5.962 67.449V61.31zm34.263 20.937l44.518-15.81v6.491l-44.518 15.81v-6.491z"/><path d="M97.11 31.695c0-.734-.528-1.343-1.225-1.472L62.051 7.826c-.027-.018-.057-.028-.084-.044-.046-.026-.091-.052-.14-.073a1.54 1.54 0 00-.138-.051 1.296 1.296 0 00-.286-.063c-.045-.005-.09-.011-.136-.012a1.606 1.606 0 00-.155.006c-.045.003-.09.007-.136.014a1.435 1.435 0 00-.157.038c-.031.009-.062.012-.093.022L13.258 24.372a1.498 1.498 0 00-.928 1.869v8.902c0 .17.034.331.087.483a1.5 1.5 0 00.671 1.231l34.168 22.618c.255.168.542.249.827.249.298 0 .586-.098.836-.267l47.074-16.708c.552-.196.911-.683.98-1.227a1.49 1.49 0 00.137-.619v-9.208zM61.018 10.74l31.039 20.547-43.769 15.534-31.165-20.63L61.018 10.74zM15.33 28.602l31.254 20.689v6.14L15.33 34.742v-6.14zm34.254 20.942L94.11 33.741v6.491L49.584 56.036v-6.492z"/></svg><svg viewBox="-25.06 -25.06 150.38 150.38" width="60" height="60" id="iconF" x="120" xmlns="http://www.w3.org/2000/svg"><path d="M82.5 7.25h-66a1.5 1.5 0 00-1.5 1.5v83a1.5 1.5 0 001.5 1.5h66a1.5 1.5 0 001.5-1.5v-83a1.5 1.5 0 00-1.5-1.5zm-47.5 52h15v30.5c0 .176.036.343.092.5H34.908c.056-.157.092-.324.092-.5v-30.5zm-17-3v-33h22.092a1.483 1.483 0 00-.092.5v4.471l-8.399 6.331a1.501 1.501 0 00.902 2.698h17.72a1.5 1.5 0 00.921-2.684L43 28.233V23.75c0-.176-.036-.343-.092-.5h22.184a1.483 1.483 0 00-.092.5v4.471l-8.399 6.331a1.501 1.501 0 00.903 2.698h17.72a1.5 1.5 0 00.921-2.684L68 28.233V23.75c0-.176-.036-.343-.092-.5H80.5c.176 0 .343-.036.5-.092v33.184a1.483 1.483 0 00-.5-.092H18zm23.487-25.393l4.364 3.393h-8.866l4.502-3.393zm25 0l4.363 3.393h-8.865l4.502-3.393zM81 10.25v10.092a1.483 1.483 0 00-.5-.092H18v-10h63zm-63 49h14v30.5c0 .176.036.343.092.5H18v-31zm34.908 31c.056-.157.092-.324.092-.5v-30.5h27.5c.176 0 .343-.036.5-.092V90.25H52.908z"/><path d="M42.5 79.25a1.5 1.5 0 001.5-1.5v-5a1.5 1.5 0 10-3 0v5a1.5 1.5 0 001.5 1.5zM24.5 71.25a1.5 1.5 0 00-1.5 1.5v5a1.5 1.5 0 103 0v-5a1.5 1.5 0 00-1.5-1.5z"/></svg><svg viewBox="-25.19 -25.19 151.13 151.13" width="60" height="60" id="iconG" x="120" y="60" xmlns="http://www.w3.org/2000/svg"><path d="M81.664 25.537L65.126 8.999a1.494 1.494 0 00-.506-.34 1.489 1.489 0 00-.564-.112H19.408a1.5 1.5 0 00-1.5 1.5v79.904a1.5 1.5 0 001.5 1.5h61.101a1.5 1.5 0 001.5-1.5V27.088a1.493 1.493 0 00-.345-1.551zM65.555 13.671l11.567 11.567-11.567.138V13.671zm13.452 74.782H20.906V11.549h41.648v15.346c0 .401.161.785.446 1.067.285.281.627.413 1.072.433l14.935-.179v60.237z"/><path d="M48.443 34.967v5.392c-4.191.6-7.394 3.655-7.394 7.334 0 3.675 3.203 6.729 7.394 7.328v8.861c-2.524-.502-4.394-2.237-4.394-4.301a1.5 1.5 0 10-3 0c0 3.682 3.203 6.74 7.394 7.338v5.388a1.5 1.5 0 103 0v-5.39c4.187-.603 7.386-3.659 7.386-7.337 0-3.675-3.199-6.728-7.386-7.33v-8.854c2.52.503 4.386 2.236 4.386 4.296a1.5 1.5 0 103 0c0-3.678-3.2-6.733-7.386-7.334v-5.392a1.5 1.5 0 10-3 .001zm-4.394 12.726c0-2.061 1.869-3.794 4.394-4.297v8.588c-2.525-.502-4.394-2.233-4.394-4.291zM55.828 59.58c0 2.061-1.866 3.794-4.386 4.299v-8.592c2.521.505 4.386 2.236 4.386 4.293z"/><path d="M24.308 53.635c0 14.131 11.497 25.628 25.628 25.628s25.628-11.497 25.628-25.628c0-14.13-11.497-25.626-25.628-25.626S24.308 39.505 24.308 53.635zm48.256 0c0 12.478-10.151 22.628-22.628 22.628s-22.628-10.15-22.628-22.628c0-12.476 10.151-22.626 22.628-22.626S72.564 41.16 72.564 53.635z"/></svg><svg class="hinstagram" width="60" height="60" viewBox="-10 -10 50 50" id="instagram" y="120" xmlns="http://www.w3.org/2000/svg"><path d="M15 11.014A3.985 3.985 0 0011.015 15 3.988 3.988 0 0015 18.987a3.987 3.987 0 000-7.973zm0 6.592A2.604 2.604 0 0112.393 15 2.603 2.603 0 0115 12.394 2.613 2.613 0 0117.607 15 2.603 2.603 0 0115 17.606zm4.385-8.05a.914.914 0 00-.92.92c0 .513.407.92.92.92.513 0 .92-.407.92-.92a.915.915 0 00-.92-.92z"/><path d="M15.002.15C6.798.15.15 6.797.15 15c0 8.2 6.647 14.85 14.85 14.85 8.2 0 14.85-6.648 14.85-14.85C29.85 6.797 23.2.15 15 .15zm7.664 18.115c0 2.423-1.98 4.4-4.416 4.4h-6.5c-2.438 0-4.417-1.978-4.417-4.385v-6.546c0-2.422 1.978-4.4 4.417-4.4h6.5c2.438 0 4.416 1.978 4.416 4.4v6.53z"/></svg></svg>