<!-- Generated by IcoMoon.io -->
<svg version="1.1" xmlns="http://www.w3.org/2000/svg" width="32" height="32" viewBox="0 0 32 32">
<title>iconB</title>
<path fill="#121212" d="M27.781 19.59h-15.53v-15.53c0-0.264-0.214-0.478-0.478-0.478h-7.713c-0.264 0-0.478 0.214-0.478 0.478v23.721c0 0.264 0.214 0.478 0.478 0.478h23.721c0.264 0 0.478-0.214 0.478-0.478v-7.714c0-0.264-0.214-0.478-0.478-0.478zM11.296 4.538v15.052h-6.758v-3.192h2.318c0.264 0 0.478-0.214 0.478-0.478s-0.214-0.478-0.478-0.478h-2.318v-3.095h4.248c0.264 0 0.478-0.214 0.478-0.478s-0.214-0.478-0.478-0.478h-4.248v-3.095h2.318c0.264 0 0.478-0.214 0.478-0.478s-0.214-0.478-0.478-0.478h-2.318v-2.805h6.758zM27.303 27.304h-22.766v-6.759h22.766v6.759z"></path>
<path fill="#121212" d="M23.923 25.945c1.114 0 2.021-0.907 2.021-2.021s-0.907-2.021-2.021-2.021c-1.114 0-2.021 0.907-2.021 2.021s0.907 2.021 2.021 2.021zM23.923 22.858c0.587 0 1.066 0.478 1.066 1.066s-0.478 1.066-1.066 1.066c-0.588 0-1.066-0.478-1.066-1.066s0.478-1.066 1.066-1.066z"></path>
</svg>
